<mxfile host="Electron" modified="2024-04-21T14:14:32.586Z" agent="Mozilla/5.0 (Windows NT 10.0; Win64; x64) AppleWebKit/537.36 (KHTML, like Gecko) draw.io/22.1.16 Chrome/120.0.6099.109 Electron/28.1.0 Safari/537.36" etag="BpOdo-XWjAg8uiGLpMu4" version="22.1.16" type="device">
  <diagram name="Page-1" id="13e1069c-82ec-6db2-03f1-153e76fe0fe0">
    <mxGraphModel dx="1050" dy="621" grid="1" gridSize="10" guides="1" tooltips="1" connect="1" arrows="1" fold="1" page="1" pageScale="1" pageWidth="1100" pageHeight="850" background="none" math="0" shadow="0">
      <root>
        <mxCell id="0" />
        <mxCell id="1" parent="0" />
        <mxCell id="i7xc6WkaaxDnV-srDzdR-1" value="Utente non verificato" style="shape=umlActor;verticalLabelPosition=bottom;verticalAlign=top;html=1;outlineConnect=0;" parent="1" vertex="1">
          <mxGeometry x="280" y="65" width="30" height="60" as="geometry" />
        </mxCell>
        <mxCell id="i7xc6WkaaxDnV-srDzdR-5" value="" style="swimlane;startSize=0;" parent="1" vertex="1">
          <mxGeometry x="460" y="25" width="200" height="800" as="geometry" />
        </mxCell>
        <mxCell id="i7xc6WkaaxDnV-srDzdR-6" value="Registrazione/Login" style="ellipse;whiteSpace=wrap;html=1;" parent="i7xc6WkaaxDnV-srDzdR-5" vertex="1">
          <mxGeometry x="40" y="40" width="120" height="80" as="geometry" />
        </mxCell>
        <mxCell id="i7xc6WkaaxDnV-srDzdR-13" value="" style="swimlane;startSize=0;rounded=0;shadow=0;swimlaneLine=1;fillColor=#CCCCCC;fillStyle=hatch;" parent="i7xc6WkaaxDnV-srDzdR-5" vertex="1">
          <mxGeometry x="20" y="160" width="160" height="210" as="geometry" />
        </mxCell>
        <mxCell id="i7xc6WkaaxDnV-srDzdR-16" value="Scegli film" style="ellipse;whiteSpace=wrap;html=1;" parent="i7xc6WkaaxDnV-srDzdR-13" vertex="1">
          <mxGeometry x="20" y="30" width="120" height="50" as="geometry" />
        </mxCell>
        <mxCell id="i7xc6WkaaxDnV-srDzdR-18" value="Scegli data e ora&amp;nbsp;" style="ellipse;whiteSpace=wrap;html=1;" parent="i7xc6WkaaxDnV-srDzdR-13" vertex="1">
          <mxGeometry x="20" y="90" width="120" height="50" as="geometry" />
        </mxCell>
        <mxCell id="i7xc6WkaaxDnV-srDzdR-19" value="Pagamento" style="ellipse;whiteSpace=wrap;html=1;" parent="i7xc6WkaaxDnV-srDzdR-13" vertex="1">
          <mxGeometry x="20" y="150" width="120" height="50" as="geometry" />
        </mxCell>
        <mxCell id="i7xc6WkaaxDnV-srDzdR-20" value="SaleProcess" style="text;html=1;strokeColor=none;fillColor=none;align=center;verticalAlign=middle;whiteSpace=wrap;rounded=0;" parent="i7xc6WkaaxDnV-srDzdR-13" vertex="1">
          <mxGeometry x="50" width="60" height="30" as="geometry" />
        </mxCell>
        <mxCell id="IGDvaZ3QflcAYOP4HEVr-5" value="" style="swimlane;startSize=0;rounded=0;shadow=0;swimlaneLine=1;fillColor=#CCCCCC;fillStyle=hatch;" parent="i7xc6WkaaxDnV-srDzdR-5" vertex="1">
          <mxGeometry x="20" y="630" width="160" height="150" as="geometry" />
        </mxCell>
        <mxCell id="IGDvaZ3QflcAYOP4HEVr-6" value="Aggiungi/rimuovi film dal catalogo" style="ellipse;whiteSpace=wrap;html=1;" parent="IGDvaZ3QflcAYOP4HEVr-5" vertex="1">
          <mxGeometry x="20" y="20" width="120" height="50" as="geometry" />
        </mxCell>
        <mxCell id="IGDvaZ3QflcAYOP4HEVr-7" value="Aggiungi/rimuovi proiezioni" style="ellipse;whiteSpace=wrap;html=1;" parent="IGDvaZ3QflcAYOP4HEVr-5" vertex="1">
          <mxGeometry x="20" y="90" width="120" height="50" as="geometry" />
        </mxCell>
        <mxCell id="IGDvaZ3QflcAYOP4HEVr-12" value="" style="swimlane;startSize=0;" parent="i7xc6WkaaxDnV-srDzdR-5" vertex="1">
          <mxGeometry x="20" y="385" width="160" height="85" as="geometry" />
        </mxCell>
        <mxCell id="IGDvaZ3QflcAYOP4HEVr-13" value="Acquista cibo" style="ellipse;whiteSpace=wrap;html=1;" parent="IGDvaZ3QflcAYOP4HEVr-12" vertex="1">
          <mxGeometry x="20" y="17.5" width="120" height="50" as="geometry" />
        </mxCell>
        <mxCell id="IGDvaZ3QflcAYOP4HEVr-16" value="" style="swimlane;startSize=0;" parent="i7xc6WkaaxDnV-srDzdR-5" vertex="1">
          <mxGeometry x="20" y="510" width="160" height="85" as="geometry" />
        </mxCell>
        <mxCell id="IGDvaZ3QflcAYOP4HEVr-17" value="Occupa posti dopo ogni saleProcess" style="ellipse;whiteSpace=wrap;html=1;" parent="IGDvaZ3QflcAYOP4HEVr-16" vertex="1">
          <mxGeometry x="20" y="17.5" width="120" height="50" as="geometry" />
        </mxCell>
        <mxCell id="i7xc6WkaaxDnV-srDzdR-8" value="" style="endArrow=classic;html=1;rounded=0;entryX=-0.022;entryY=0.1;entryDx=0;entryDy=0;entryPerimeter=0;" parent="1" target="i7xc6WkaaxDnV-srDzdR-5" edge="1">
          <mxGeometry width="50" height="50" relative="1" as="geometry">
            <mxPoint x="320" y="105" as="sourcePoint" />
            <mxPoint x="370" y="15" as="targetPoint" />
          </mxGeometry>
        </mxCell>
        <mxCell id="i7xc6WkaaxDnV-srDzdR-10" value="User" style="shape=umlActor;verticalLabelPosition=bottom;verticalAlign=top;html=1;outlineConnect=0;" parent="1" vertex="1">
          <mxGeometry x="280" y="225" width="30" height="60" as="geometry" />
        </mxCell>
        <mxCell id="i7xc6WkaaxDnV-srDzdR-11" value="Cashier" style="shape=umlActor;verticalLabelPosition=bottom;verticalAlign=top;html=1;outlineConnect=0;" parent="1" vertex="1">
          <mxGeometry x="280" y="315" width="30" height="60" as="geometry" />
        </mxCell>
        <mxCell id="i7xc6WkaaxDnV-srDzdR-14" value="" style="endArrow=classic;html=1;rounded=0;entryX=0.014;entryY=0.3;entryDx=0;entryDy=0;entryPerimeter=0;" parent="1" target="i7xc6WkaaxDnV-srDzdR-5" edge="1">
          <mxGeometry width="50" height="50" relative="1" as="geometry">
            <mxPoint x="320" y="265" as="sourcePoint" />
            <mxPoint x="460" y="265" as="targetPoint" />
          </mxGeometry>
        </mxCell>
        <mxCell id="i7xc6WkaaxDnV-srDzdR-15" value="" style="endArrow=classic;html=1;rounded=0;entryX=0.006;entryY=0.314;entryDx=0;entryDy=0;entryPerimeter=0;" parent="1" target="i7xc6WkaaxDnV-srDzdR-5" edge="1">
          <mxGeometry width="50" height="50" relative="1" as="geometry">
            <mxPoint x="320" y="345" as="sourcePoint" />
            <mxPoint x="457" y="385" as="targetPoint" />
          </mxGeometry>
        </mxCell>
        <mxCell id="i7xc6WkaaxDnV-srDzdR-21" value="Admin" style="shape=umlActor;verticalLabelPosition=bottom;verticalAlign=top;html=1;outlineConnect=0;" parent="1" vertex="1">
          <mxGeometry x="280" y="705" width="30" height="60" as="geometry" />
        </mxCell>
        <mxCell id="IGDvaZ3QflcAYOP4HEVr-11" value="" style="endArrow=classic;html=1;rounded=0;entryX=0.006;entryY=0.901;entryDx=0;entryDy=0;entryPerimeter=0;" parent="1" target="i7xc6WkaaxDnV-srDzdR-5" edge="1">
          <mxGeometry width="50" height="50" relative="1" as="geometry">
            <mxPoint x="320" y="745" as="sourcePoint" />
            <mxPoint x="370" y="535" as="targetPoint" />
          </mxGeometry>
        </mxCell>
        <mxCell id="IGDvaZ3QflcAYOP4HEVr-14" value="" style="endArrow=classic;html=1;rounded=0;entryX=-0.018;entryY=0.522;entryDx=0;entryDy=0;entryPerimeter=0;" parent="1" target="i7xc6WkaaxDnV-srDzdR-5" edge="1">
          <mxGeometry width="50" height="50" relative="1" as="geometry">
            <mxPoint x="320" y="345" as="sourcePoint" />
            <mxPoint x="370" y="295" as="targetPoint" />
          </mxGeometry>
        </mxCell>
        <mxCell id="IGDvaZ3QflcAYOP4HEVr-18" value="Cinema" style="shape=umlActor;verticalLabelPosition=bottom;verticalAlign=top;html=1;outlineConnect=0;" parent="1" vertex="1">
          <mxGeometry x="280" y="550" width="30" height="60" as="geometry" />
        </mxCell>
        <mxCell id="nZXx3r7vmPvJS99ckU6L-1" style="edgeStyle=orthogonalEdgeStyle;rounded=0;orthogonalLoop=1;jettySize=auto;html=1;entryX=0;entryY=0.694;entryDx=0;entryDy=0;entryPerimeter=0;" edge="1" parent="1" target="i7xc6WkaaxDnV-srDzdR-5">
          <mxGeometry relative="1" as="geometry">
            <mxPoint x="320" y="580" as="sourcePoint" />
          </mxGeometry>
        </mxCell>
      </root>
    </mxGraphModel>
  </diagram>
</mxfile>
